<?xml version="1.0" encoding="UTF-8" standalone="no"?>
<!-- Created with Inkscape (http://www.inkscape.org/) -->

<svg
   width="1920"
   height="1080"
   viewBox="0 0 1920 1080"
   version="1.1"
   id="svg5"
   inkscape:version="1.1.1 (3bf5ae0d25, 2021-09-20)"
   sodipodi:docname="ucon.svg"
   xmlns:inkscape="http://www.inkscape.org/namespaces/inkscape"
   xmlns:sodipodi="http://sodipodi.sourceforge.net/DTD/sodipodi-0.dtd"
   xmlns="http://www.w3.org/2000/svg"
   xmlns:svg="http://www.w3.org/2000/svg">
  <sodipodi:namedview
     id="namedview7"
     pagecolor="#505050"
     bordercolor="#eeeeee"
     borderopacity="1"
     inkscape:pageshadow="0"
     inkscape:pageopacity="0"
     inkscape:pagecheckerboard="0"
     inkscape:document-units="px"
     showgrid="false"
     inkscape:zoom="0.39922071"
     inkscape:cx="1008.2142"
     inkscape:cy="905.51415"
     inkscape:window-width="1920"
     inkscape:window-height="1017"
     inkscape:window-x="-8"
     inkscape:window-y="-8"
     inkscape:window-maximized="1"
     inkscape:current-layer="layer1" />
  <defs
     id="defs2" />
  <g
     inkscape:label="Layer 1"
     inkscape:groupmode="layer"
     id="layer1">
    <g
       style="fill:none"
       id="g26"
       transform="translate(-321.52675,-187.12177)">
      <path
         d="M 3.78,20 3.75,11.25 H 0 V 7.5 H 3.75 V 5 c 0,-3.37 2.09,-5 5.1,-5 1.44,0 2.68,0.1 3.04,0.15 V 3.68 H 9.8 C 8.17,3.68 7.85,4.46 7.85,5.6 v 1.9 h 4.65 l -1.25,3.75 H 7.85 V 20 Z"
         fill="#ffffff"
         id="path17" />
    </g>
    <g
       style="fill:none"
       id="g64"
       transform="matrix(15,0,0,16.984621,3869.1978,-2674.3629)">
      <path
         d="m -155.35055,177.23055 c -0.75,0.37 -1.5,0.5 -2.38,0.62 0.88,-0.5 1.5,-1.25 1.75,-2.25 -0.8094,0.48131 -1.6957,0.81959 -2.62,1 -0.8015,-0.78773 -1.8763,-1.23554 -3,-1.25 -2.13,0 -4,1.88 -4,4.13 0,0.37 0,0.62 0.13,0.87 -1.63784,-0.0618 -3.24357,-0.47293 -4.70954,-1.20592 -1.46598,-0.73298 -2.75834,-1.77087 -3.79046,-3.04408 -0.37188,0.64563 -0.54576,1.38634 -0.5,2.13 0.0116,0.67196 0.18825,1.33077 0.51434,1.91842 0.32609,0.58766 0.79163,1.08614 1.35566,1.45158 -0.63,0 -1.25,-0.25 -1.88,-0.5 0,2 1.38,3.63 3.25,4 -0.37,0.13 -0.75,0.13 -1.12,0.13 -0.25,0 -0.5,0 -0.75,-0.13 0.5,1.63 2,2.88 3.88,2.88 -1.45221,1.1663 -3.2678,1.7856 -5.13,1.75 h -1 c 1.87496,1.1791 4.03554,1.8256 6.25,1.87 7.5,0 11.63,-6.25 11.63,-11.63 v -0.5 c 0.8587,-0.58645 1.5817,-1.35031 2.12,-2.24 z"
         fill="#ffffff"
         id="path55" />
    </g>
    <g
       style="fill:none"
       id="g83"
       transform="matrix(15.411713,0,0,18.75,25.674132,291.27995)">
      <path
         d="M 9.03,11.38 V 4.62 L 14.97,8 Z M 22.23,2.5 C 22.1026,2.01772 21.8508,1.57733 21.4998,1.22285 21.1489,0.868375 20.711,0.612223 20.23,0.48 18.46,2.98023e-8 11.35,0 11.35,0 11.35,0 4.25,2.98023e-8 2.48,0.48 1.99901,0.612223 1.56115,0.868375 1.21018,1.22285 0.859213,1.57733 0.607431,2.01772 0.48,2.5 2.98023e-8,4.28 0,8 0,8 c 0,0 2.98023e-8,3.72 0.47,5.5 0.128299,0.4835 0.381586,0.9247 0.73441,1.2793 0.35282,0.3545 0.79276,0.61 1.27559,0.7407 1.77,0.48 8.88,0.48 8.88,0.48 0,0 7.1,0 8.87,-0.48 0.481,-0.1322 0.9189,-0.3884 1.2698,-0.7429 0.351,-0.3544 0.6028,-0.7948 0.7302,-1.2771 0.48,-1.78 0.48,-5.5 0.48,-5.5 0,0 0,-3.72 -0.47,-5.5 z"
         fill="#ffffff"
         id="path74" />
    </g>
    <g
       style="fill:none"
       id="g194"
       transform="matrix(15.005886,0,0,15.007504,442.53121,294.14928)">
      <path
         d="m 12.0202,0 c 1.8,0 2.18,0.0199999 3.1,0.0599999 C 16.1802,0.11 16.9102,0.28 17.5402,0.53 c 0.66,0.25 1.22,0.6 1.77,1.15 0.56,0.55 0.9,1.11 1.16,1.77 0.25,0.63 0.41,1.36 0.46,2.43 0.05,0.95 0.06,1.32 0.06,3.32 v 1.6 c 0,2 -0.01,2.37 -0.06,3.32 -0.0158,0.8268 -0.1713,1.6451 -0.46,2.42 -0.26,0.66 -0.6,1.22 -1.15,1.77 -0.56,0.56 -1.12,0.9 -1.78,1.16 -0.63,0.25 -1.36,0.41 -2.42,0.46 -0.95,0.05 -1.33,0.06 -3.33,0.06 h -1.59 c -2.00005,0 -2.37005,-0.01 -3.33005,-0.06 -0.82682,-0.0159 -1.645,-0.1714 -2.42,-0.46 -0.66639,-0.2505 -1.27034,-0.6429 -1.77,-1.15 -0.51219,-0.5014 -0.90816,-1.109 -1.16,-1.78 -0.28838,-0.775 -0.44389,-1.5932 -0.46,-2.42 -0.04902,-1.0326 -0.069027,-2.0663 -0.06,-3.1 V 8.97 c 0,-1.8 0.02,-2.18 0.06,-3.1 0.05,-1.06 0.22,-1.79 0.46,-2.42 0.26,-0.66 0.6,-1.22 1.16,-1.77 C 3.17533,1.16743 3.78059,0.774176 4.45015,0.53 5.22461,0.238206 6.04278,0.079305 6.87015,0.0599999 7.79015,0.0199999 8.17015,0 9.97015,0 Z m 0.02,1.8 H 9.95015 c -1.73,0 -2.1,0.02 -3,0.06 -0.97,0.04 -1.5,0.2 -1.85,0.34 -0.47,0.18 -0.8,0.4 -1.15,0.75 -0.35,0.35 -0.57,0.68 -0.75,1.15 -0.13,0.35 -0.3,0.88 -0.34,1.86 -0.04,0.9 -0.06,1.26 -0.06,3 v 2.08 c 0,1.74 0.02,2.1 0.06,3 0.04,0.97 0.2,1.5 0.34,1.85 0.18,0.47 0.4,0.8 0.75,1.15 0.35,0.35 0.68,0.57 1.15,0.75 0.35,0.14 0.88,0.3 1.86,0.34 0.97,0.05 1.32,0.06 3.48005,0.06 h 1.11 c 2.17,0 2.51,-0.01 3.49,-0.06 0.97,-0.04 1.5,-0.2 1.85,-0.34 0.47,-0.18 0.8,-0.4 1.15,-0.75 0.35,-0.35 0.57,-0.68 0.75,-1.15 0.14,-0.35 0.3,-0.88 0.34,-1.85 0.05,-0.98 0.06,-1.32 0.06,-3.49 v -1.1 c 0,-2.17 -0.01,-2.52 -0.06,-3.5 -0.04,-0.97 -0.2,-1.5 -0.34,-1.85 C 18.6292,3.66543 18.373,3.27246 18.0402,2.95 17.7179,2.61692 17.3249,2.3606 16.8902,2.2 16.2971,1.98317 15.6716,1.86822 15.0402,1.86 14.0409,1.81227 13.0405,1.79226 12.0402,1.8 Z m -1.04,3.06 c 1.3618,0 2.6679,0.54101 3.6309,1.50401 0.963,0.963 1.5041,2.2691 1.5041,3.63099 0,1.3619 -0.5411,2.668 -1.5041,3.631 -0.963,0.963 -2.2691,1.504 -3.6309,1.504 -1.36193,0 -2.66804,-0.541 -3.63104,-1.504 -0.963,-0.963 -1.50401,-2.2691 -1.50401,-3.631 0,-1.36189 0.54101,-2.66799 1.50401,-3.63099 C 8.33216,5.40101 9.63827,4.86 11.0002,4.86 Z m 0,1.8 c -0.8845,0 -1.73281,0.35137 -2.35825,0.9768 -0.62543,0.62543 -0.9768,1.4737 -0.9768,2.3582 0,0.8845 0.35137,1.7328 0.9768,2.3582 0.62544,0.6254 1.47375,0.9768 2.35825,0.9768 0.8845,0 1.7327,-0.3514 2.3582,-0.9768 0.6254,-0.6254 0.9768,-1.4737 0.9768,-2.3582 0,-0.8845 -0.3514,-1.73277 -0.9768,-2.3582 C 12.7329,7.01137 11.8847,6.66 11.0002,6.66 Z m 5.33,-3.2 c 0.3182,0 0.6234,0.12643 0.8485,0.35147 0.225,0.22505 0.3515,0.53027 0.3515,0.84853 0,0.31826 -0.1265,0.62348 -0.3515,0.84853 C 16.9536,5.73357 16.6484,5.86 16.3302,5.86 16.0119,5.86 15.7067,5.73357 15.4816,5.50853 15.2566,5.28348 15.1302,4.97826 15.1302,4.66 c 0,-0.31826 0.1264,-0.62348 0.3514,-0.84853 C 15.7067,3.58643 16.0119,3.46 16.3302,3.46 Z"
         fill="#ffffff"
         id="path185" />
    </g>
    <g
       style="fill:none"
       id="g232"
       transform="matrix(24,0,0,15,872.3539,285.07982)">
      <path
         d="M 3.78,20 3.75,11.25 H 0 V 7.5 H 3.75 V 5 c 0,-3.37 2.09,-5 5.1,-5 1.44,0 2.68,0.1 3.04,0.15 V 3.68 H 9.8 C 8.17,3.68 7.85,4.46 7.85,5.6 v 1.9 h 4.65 l -1.25,3.75 H 7.85 V 20 Z"
         fill="#ffffff"
         id="path223" />
    </g>
    <g
       style="fill:none"
       id="g251"
       transform="matrix(15.05415,0,0,15.000023,1600.16,276.75557)">
      <path
         d="M 10.0002,0 C 7.67571,0.00823729 5.42667,0.826025 3.63977,2.31277 1.85286,3.79952 0.63972,5.86234 0.208905,8.1466 c -0.430814,2.2843 -0.052387,4.6473 1.070225,6.6827 1.12261,2.0355 2.91927,3.6163 5.0811,4.4707 -0.1,-0.79 -0.17,-2 0.03,-2.87 l 1.17,-4.97 c 0,0 -0.3,-0.6 -0.3,-1.48 0,-1.39 0.81,-2.42 1.82,-2.42 0.85,0 1.26997,0.64 1.26997,1.4 0,0.86 -0.54997,2.14 -0.83997,3.33 -0.24,1 0.49997,1.81 1.48997,1.81 1.78,0 3.14,-1.87 3.14,-4.57 0,-2.4 -1.72,-4.06 -4.17997,-4.06 C 9.37582,5.44433 8.79227,5.53734 8.2448,5.74342 7.69733,5.94951 7.19729,6.26438 6.77487,6.66904 6.35245,7.07371 6.01641,7.55977 5.78702,8.09789 5.55763,8.63601 5.43966,9.21503 5.44023,9.8 c 0,0.86 0.33,1.78 0.74,2.28 0.08,0.1 0.09,0.19 0.06,0.29 l -0.28,1.13 c -0.04,0.18 -0.15,0.23 -0.33,0.14 -1.26,-0.59 -2.04,-2.4 -2.04,-3.88 0,-3.15 2.3,-6.04 6.61997,-6.04 3.46,0 6.17,2.46 6.17,5.77 0,3.45 -2.18,6.22 -5.2,6.22 -1,0 -1.95997,-0.53 -2.27997,-1.15 l -0.63,2.37 c -0.29514,0.9277 -0.71212,1.8121 -1.24,2.63 1.37383,0.4216 2.82238,0.5421 4.24697,0.3533 1.4246,-0.1888 2.7918,-0.6824 4.0084,-1.4472 1.2167,-0.7647 2.2542,-1.7828 3.0419,-2.9847 0.7877,-1.2019 1.3071,-2.5595 1.5229,-3.9803 C 20.0661,10.0804 19.9731,8.62979 19.5776,7.24822 19.1822,5.86664 18.4936,4.58653 17.5588,3.49506 16.6241,2.40359 15.465,1.52642 14.1607,0.923296 12.8563,0.320168 11.4373,0.00525257 10.0002,0 Z"
         fill="#ffffff"
         id="path242" />
    </g>
  </g>
</svg>
